<?xml version="1.0" encoding="UTF-8" standalone="no"?>
<!-- Created with Inkscape (http://www.inkscape.org/) -->

<svg
   xmlns:dc="http://purl.org/dc/elements/1.1/"
   xmlns:cc="http://creativecommons.org/ns#"
   xmlns:rdf="http://www.w3.org/1999/02/22-rdf-syntax-ns#"
   xmlns:svg="http://www.w3.org/2000/svg"
   xmlns="http://www.w3.org/2000/svg"
   version="1.1"
   width="744.09448"
   height="1052.3622"
   id="svg5369">
  <defs
     id="defs5371" />
  <metadata
     id="metadata5374">
    <rdf:RDF>
      <cc:Work
         rdf:about="">
        <dc:format>image/svg+xml</dc:format>
        <dc:type
           rdf:resource="http://purl.org/dc/dcmitype/StillImage" />
        <dc:title></dc:title>
      </cc:Work>
    </rdf:RDF>
  </metadata>
  <g
     transform="translate(0,-2.5390623e-6)"
     id="layer1">
    <text
       x="17.580826"
       y="-135.62299"
       id="text3997"
       xml:space="preserve"
       style="font-size:12px;font-style:normal;font-variant:normal;font-weight:normal;font-stretch:normal;text-align:start;line-height:125%;letter-spacing:0px;word-spacing:0px;writing-mode:lr-tb;text-anchor:start;fill:#000000;fill-opacity:1;stroke:none;font-family:Calibri;-inkscape-font-specification:Calibri"><tspan
         x="17.580826"
         y="-135.62299"
         id="tspan3999">To store the symbols within the same file (may be necessary for old Safari, for example, symbol instead of the inner g should be used with style=&quot;overflow:visible&quot; (only set for aliphatic/aromatic now)</tspan></text>
    <g
       transform="translate(638.1784,1.4935501)"
       id="g4001">
      <g
         id="circle"
         style="overflow:visible">
        <path
           d="m 17.789477,0.08321249 c 0,9.78457201 -7.9319604,17.71653451 -17.71653044,17.71653451 -9.78457996,0 -17.71653956,-7.9319625 -17.71653956,-17.71653451 0,-9.78457299 7.9319596,-17.71653649 17.71653956,-17.71653649 9.78457004,0 17.71653044,7.9319635 17.71653044,17.71653649 z"
           id="path3103" />
      </g>
    </g>
    <g
       transform="translate(496.87499,0)"
       id="g3111">
      <g
         id="minus"
         style="overflow:visible">
        <rect
           width="35.433014"
           height="11.805198"
           x="-17.716507"
           y="-5.9025989"
           id="rect3100" />
      </g>
    </g>
    <g
       transform="translate(567.34271,0)"
       id="g4013">
      <g
         id="square"
         style="overflow:visible">
        <path
           d="m -13.228326,-13.22835 26.456652,0 0,26.4567 -26.456652,0 z"
           id="rect3097" />
      </g>
    </g>
    <g
       transform="translate(158.12792,1.4935501)"
       id="g3809">
      <g
         id="aliphatic"
         style="overflow:visible">
        <path
           d="M -10.11,20.135802 -5.7172236,6.634532 6.98138,1.9519331 l 6.556797,7.8450324 5.096925,-5.4915039 -5.258417,-6.8492359 5.455238,-6.5641249 -4.767852,-5.8851648 -6.9974263,8.7299986 -12.4444481,4.4527197 -4.2330857,-9.9017913 -6.5078439,4.2885517 3.89383,10.1192676 -4.270546,12.3086377 z"
           id="path15" />
      </g>
    </g>
    <g
       transform="translate(87.83853,1.4935501)"
       id="g3816">
      <g
         id="aromatic"
         style="overflow:visible">
        <path
           d="m -8.8971511,-17.772536 -8.8745199,17.71660037 8.8745199,17.71649963 17.7165398,0 L 17.661399,-0.05593563 8.8193887,-17.772536 z m 8.84202001,4.1558 c 12.90576009,3.3312 9.31905979,26.6539 0,27.0903 -12.92791991,-3.3172 -9.29209001,-26.653 0,-27.0903 z"
           id="path18" />
      </g>
    </g>
    <g
       transform="translate(354.6875,0)"
       id="g3103">
      <g
         id="heart"
         style="overflow:visible">
        <path
           d="m 0,-7.3418502 c 7.32819,-20.9285578 35.90924,0 0,26.9081472 -35.90971,-26.9081472 -7.32867,-47.836705 0,-26.9081472 z"
           id="path21" />
      </g>
    </g>
    <g
       transform="translate(283.94756,0)"
       id="g3099">
      <g
         id="dislike"
         style="overflow:visible">
        <path
           d="M -9.31031,-16.816282 C -18.29568,-16.975565 -25.8116,-0.70059364 0,18.615629 30.05728,-3.8777076 14.94066,-22.18472 4.91377,-15.301535 c 2.48924,3.321571 2.62672,5.091644 0.90517,9.9446444 L 4.07326,-6.4764866 2.7155,1.8216934 0.84051,0.76795536 -2.84482,12.490782 -3.87929,-2.1298216 l 2.1336,1.38303096 -0.51723,-9.15434096 2.0043,1.053737 c -2.10125,-5.4396484 -5.66196,-7.9087944 -9.05169,-7.9688874 z"
           id="path24" />
      </g>
    </g>
    <g
       transform="translate(230.91455,0)"
       id="g3095">
      <g
         id="raindrop"
         style="overflow:visible">
        <path
           d="M 0.02757896,-18.17045 C -1.418351,-11.646626 -4.134291,-6.404912 -8.120721,-2.417565 c -4.49549,4.503233 -4.47787,11.819421 0.0282,16.318519 4.50643,4.49874 11.79447,4.475032 16.29659,-0.02829 4.49562,-4.503232 4.50628,-11.791099 0,-16.290238 -3.99012,-3.983638 -6.72483,-9.2304 -8.17659004,-15.752887 z"
           id="path27" />
      </g>
    </g>
    <g
       transform="translate(705.30809,1.4935501)"
       id="g4007">
      <g
         id="clock"
         style="fill:#ffffff;stroke:#000000;stroke-width:2.5;stroke-miterlimit:4;stroke-dasharray:none;overflow:visible">
        <path
           d="m 14.283131,-0.38618418 c 0,7.82765758 -6.3455677,14.17322818 -14.17322368,14.17322818 -7.82766402,0 -14.17323232,-6.3455706 -14.17323232,-14.17322818 0,-7.82765842 6.3455683,-14.17322882 14.17323232,-14.17322882 7.82765598,0 14.17322368,6.3455704 14.17322368,14.17322882 z"
           id="path3014"
           style="stroke-width:2" />
        <path
           d="m 0.10990532,-12.559413 0,12.75259772 11.43128968,0"
           id="path3016" />
      </g>
    </g>
    <g
       transform="translate(84.575686,56.834861)"
       id="g3128">
      <g
         id="x-mark"
         style="overflow:visible">
        <path
           d="M -1.4393053,9.3411283 C -2.3786709,2.2635098 -2.8650866,-2.7853234 -2.8650866,-9.908872 l 7.9375,-4 C 5.3530151,-6.7903229 2.3504088,2.2705929 1.6661634,9.3411283 l -3.1054687,0 m -1.1914063,7.3828127 0,-5.488281 5.4882813,0 0,5.488281 -5.4882813,0"
           id="path3122" />
      </g>
    </g>
    <path
       d="m -36.50574,1052.9706 72.403051,0"
       id="path4017"
       style="fill:none;stroke:#000000;stroke-width:1px;stroke-linecap:butt;stroke-linejoin:miter;stroke-opacity:1" />
    <path
       d="M -0.608429,1018.2902 0,1085.8258"
       id="path4019"
       style="fill:none;stroke:#000000;stroke-width:1px;stroke-linecap:butt;stroke-linejoin:miter;stroke-opacity:1" />
    <g
       transform="translate(425.78124,0)"
       id="g3107">
      <g
         id="plus"
         style="overflow:visible">
        <path
           d="m -5.81561,-17.620814 0,11.815617 -11.81562,0 0,11.805197 11.81562,0 0,11.815617 11.81561,0 L 6,6 l 11.81562,0 0,-11.805197 -11.81562,0 0,-11.815617 z"
           id="path3115" />
      </g>
    </g>
    <g
       transform="translate(159.7964,60.282473)"
       id="g3199">
      <g
         id="star-18"
         style="overflow:visible">
        <path
           d="M 18.069381,6.6385829 11.701903,6.7037003 15.18372,12.035301 9.1779756,9.9186858 10.626299,16.119603 5.7066705,12.07655 4.94681,18.398862 1.7066775,12.917023 l -2.8763934,5.681143 -1.1698291,-6.259435 -4.6459908,4.354743 1.0415728,-6.282049 -5.855213,2.503098 3.1273456,-5.546957 -6.3582096,0.3495415 4.835914,-4.142819 -6.094313,-1.8461744 5.961201,-2.23899616 -5.095353,-3.81921464 6.3674775,-0.065117 -3.4818165,-5.3316012 6.0057434,2.1166157 -1.4483229,-6.2009178 4.919628,4.0430531 0.7598605,-6.3223121 3.24013249,5.481839 2.87639341,-5.681143 1.1698291,6.259435 4.6459908,-4.354743 -1.0415728,6.2820496 5.855214,-2.5030986 -3.127347,5.5469576 6.358211,-0.3495415 -4.835914,4.142819 6.094313,1.84617447 -5.961201,2.23899613 z"
           id="path3152"
           style="fill:#000000;fill-opacity:0.5;stroke:none" />
        <path
           d="M 16.745986,5.4843398 10.378508,5.5494572 13.860325,10.881058 7.8545811,8.7644427 9.302904,14.96536 4.383276,10.922307 3.6234155,17.244619 0.38328302,11.76278 l -2.87639342,5.681143 -1.1698291,-6.259435 -4.6459908,4.354743 1.0415728,-6.2820491 -5.8552135,2.5030981 3.1273461,-5.5469571 -6.3582101,0.3495415 4.835914,-4.142819 -6.094313,-1.84617443 5.961201,-2.23899617 -5.095353,-3.8192146 6.367478,-0.065117 -3.481817,-5.3316012 6.0057439,2.1166157 -1.4483229,-6.2009177 4.919628,4.043053 0.7598605,-6.322312 3.24013248,5.481839 2.87639342,-5.681143 1.1698291,6.259435 4.6459908,-4.354743 -1.0415728,6.2820495 5.8552135,-2.5030985 -3.1273461,5.5469575 6.3582101,-0.3495415 -4.835914,4.142819 6.094313,1.84617443 -5.961201,2.23899617 z"
           id="path3150" />
      </g>
    </g>
    <g
       transform="translate(230.04587,60.217888)"
       id="g3222">
      <g
         id="circle-p"
         style="overflow:visible">
        <path
           d="m 17.885687,0 c 0,9.7845728 -7.9319632,17.716536 -17.71653563,17.716536 C -9.615421,17.716536 -17.547385,9.7845728 -17.547385,0 c 0,-9.7845724 7.931964,-17.716535 17.71653637,-17.716535 C 9.9537238,-17.716535 17.885687,-9.7845724 17.885687,0 z"
           id="path3169"
           style="fill:#4d4d4d" />
        <path
           d="m -2.7585629,-9.448371 0,9.33907773 4.2283881,0 C 3.0346493,-0.10928052 4.2443444,-0.51436191 5.0989143,-1.3245387 5.953455,-2.1346875 6.3807326,-3.288892 6.3807485,-4.7871557 6.3807326,-6.2742864 5.953455,-7.4229419 5.0989143,-8.2331256 4.2443444,-9.0432675 3.0346493,-9.4483489 1.4698252,-9.448371 l -4.2283881,0 m -3.3627338,-2.763435 7.5911219,0 c 2.7856173,2.5e-5 4.8887112,0.632618 6.3092878,1.897781 1.4316403,1.2541104 2.1474691,3.0963983 2.1474885,5.5268693 -1.94e-5,2.452702 -0.7158482,4.30608815 -2.1474885,5.56016389 C 6.3585364,2.0271077 4.2554425,2.6541515 1.4698252,2.6541415 l -4.2283881,0 0,9.9883185 -3.3627338,0 0,-24.854266"
           id="path3176"
           style="fill:#ffffff;stroke:none" />
      </g>
    </g>
    <g
       transform="translate(133.00419,132.52576)"
       id="g3233">
      <g
         id="flow-arrow"
         style="overflow:visible">
        <path
           d="m -57.57874,-17.716536 106.299212,0 8.858268,18.0959193 -8.858268,17.3371517 -106.299212,0 8.858267,-17.815584 z"
           id="rect3227" />
      </g>
    </g>
    <g
       transform="translate(292.72255,60.282474)"
       id="g3032">
      <g
         id="rhomb"
         style="overflow:visible">
        <path
           d="M -0.04411863,-18.707643 18.707643,-0.04415257 0.04411863,18.707643 -18.707643,0.04415257 z"
           id="path3036" />
      </g>
    </g>
    <g
       transform="translate(354.33071,60.236198)"
       id="g3041">
      <g
         id="arrow"
         style="overflow:visible">
        <path
           d="m 5.125,-7.78125 0.03125,5.21875 -22.875,0 0,5.125 22.875,0 0.03125,5.21875 12.53125,-7.75 L 5.125,-7.78125 z"
           id="rect3045" />
      </g>
    </g>
    <g
       transform="translate(539.3671,58.304357)"
       id="g3058">
      <g
         id="avm_go"
         style="overflow:visible">
        <path
           d="m -0.055136,-16.772541 -17.716535,12.871815 6.767114,20.827035 21.898841,1e-6 6.767115,-20.827035 z"
           id="path3075"
           style="fill:#eeddb5;fill-opacity:1" />
      </g>
    </g>
    <g
       transform="translate(425.25199,70.922128)"
       id="g3069">
      <g
         id="g3071"
         style="overflow:visible">
        <path
           d="M 15.287833,-1.8276617 -0.05513616,7.0306049 -15.398106,-1.8276617 l 1e-6,-17.7165353 15.342969,-8.858268 15.342969,8.858268 z"
           id="path3073" />
      </g>
    </g>
    <g
       transform="translate(486.2175,58.304357)"
       id="g3078">
      <g
         id="g3080"
         style="overflow:visible">
        <path
           d="m -0.055136,-16.772541 -17.716535,12.871815 6.767114,20.827035 21.898841,1e-6 6.767115,-20.827035 z"
           id="path3082" />
      </g>
    </g>
    <g
       transform="translate(354.57243,90.791547)"
       id="g3136">
      <g
         id="uml_generalization_arrow"
         style="overflow:visible">
        <path
           d="m 5.125,-7.78125 0.03125,5.21875 -22.875,0 0,5.125 22.875,0 0.03125,5.21875 12.53125,-7.75 L 5.125,-7.78125 z M 6.53125,-5.3125 15.28125,0 6.5625,5.34375 6.53125,-5.3125 z"
           id="path3140" />
      </g>
    </g>
    <g
       transform="translate(353.87411,125.47728)"
       id="g3146">
      <g
         id="line"
         style="overflow:visible">
        <path
           d="m 17.716535,-2.6035051 -35.43307,0 0,5.2070102 35.43307,0 z"
           id="path3151" />
      </g>
    </g>
    <g
       transform="translate(89.861857,-46.349797)"
       id="g3153">
      <g
         id="g3155"
         style="overflow:visible">
        <path
           d="m 17.716535,-2.6035051 -35.43307,0 0,5.2070102 35.43307,0 z"
           id="path3157" />
      </g>
    </g>
  </g>
</svg>
